HIERARCHY
ROOT root
{
	OFFSET 0.000000 0.000000 0.000000
	CHANNELS 6 Xposition Yposition Zposition Zrotation Yrotation Xrotation
	JOINT lhip
	{
		OFFSET 0.058581 -0.082280 -0.017664
		CHANNELS 3 Zrotation Yrotation Xrotation
		JOINT lknee
		{
			OFFSET 0.043451 -0.386469 0.008037
			CHANNELS 3 Zrotation Yrotation Xrotation
			JOINT lankle
			{
				OFFSET -0.014790 -0.426874 -0.037428
				CHANNELS 3 Zrotation Yrotation Xrotation
				JOINT ltoe
				{
					OFFSET 0.041054 -0.060286 0.122042
					CHANNELS 3 Zrotation Yrotation Xrotation
					End Site
					{
						OFFSET 0.000000 0.000000 0.000000
					}
				}
			}
		}
	}
	JOINT rhip
	{
		OFFSET -0.060310 -0.090513 -0.013543
		CHANNELS 3 Zrotation Yrotation Xrotation
		JOINT rknee
		{
			OFFSET -0.043257 -0.383688 -0.004843
			CHANNELS 3 Zrotation Yrotation Xrotation
			JOINT rankle
			{
				OFFSET 0.019056 -0.420046 -0.034562
				CHANNELS 3 Zrotation Yrotation Xrotation
				JOINT rtoe
				{
					OFFSET -0.034840 -0.062106 0.130323
					CHANNELS 3 Zrotation Yrotation Xrotation
					End Site
					{
						OFFSET 0.000000 0.000000 0.000000
					}
				}
			}
		}
	}
	JOINT lowerback
	{
		OFFSET 0.004439 0.124404 -0.038385
		CHANNELS 3 Zrotation Yrotation Xrotation
		JOINT upperback
		{
			OFFSET 0.004488 0.137956 0.026820
			CHANNELS 3 Zrotation Yrotation Xrotation
			JOINT chest
			{
				OFFSET -0.002265 0.056032 0.002855
				CHANNELS 3 Zrotation Yrotation Xrotation
				JOINT lowerneck
				{
					OFFSET -0.013390 0.211636 -0.033468
					CHANNELS 3 Zrotation Yrotation Xrotation
					JOINT upperneck
					{
						OFFSET 0.010113 0.088937 0.050410
						CHANNELS 3 Zrotation Yrotation Xrotation
						End Site
						{
							OFFSET 0.000000 0.000000 0.000000
						}
					}
				}
				JOINT lclavicle
				{
					OFFSET 0.071702 0.114000 -0.018898
					CHANNELS 3 Zrotation Yrotation Xrotation
					JOINT lshoulder
					{
						OFFSET 0.122921 0.045205 -0.019046
						CHANNELS 3 Zrotation Yrotation Xrotation
						JOINT lelbow
						{
							OFFSET 0.255332 -0.015649 -0.022946
							CHANNELS 3 Zrotation Yrotation Xrotation
							JOINT lwrist
							{
								OFFSET 0.265709 0.012698 -0.007375
								CHANNELS 3 Zrotation Yrotation Xrotation
								End Site
								{
									OFFSET 0.000000 0.000000 0.000000
								}
							}
						}
					}
				}
				JOINT rclavicle
				{
					OFFSET -0.082954 0.112472 -0.023707
					CHANNELS 3 Zrotation Yrotation Xrotation
					JOINT rshoulder
					{
						OFFSET -0.113228 0.046853 -0.008472
						CHANNELS 3 Zrotation Yrotation Xrotation
						JOINT relbow
						{
							OFFSET -0.260127 -0.014369 -0.031269
							CHANNELS 3 Zrotation Yrotation Xrotation
							JOINT rwrist
							{
								OFFSET -0.269108 0.006794 -0.006027
								CHANNELS 3 Zrotation Yrotation Xrotation
								End Site
								{
									OFFSET 0.000000 0.000000 0.000000
								}
							}
						}
					}
				}
			}
		}
	}
}
MOTION
Frames: 14
Frame Time: 0.033333
0.622357 0.403349 0.889704 71.931206 9.150660 99.360486 18.234207 8.073727 -49.400872 -5.906785 3.387725 48.171618 2.134200 7.449767 -16.546766 0.000000 -0.000000 0.000000 -14.265507 -3.448345 -1.376345 2.604167 4.611902 12.081212 6.769671 -1.641507 -22.550285 0.000000 -0.000000 0.000000 1.328853 5.809018 14.828605 3.307933 -12.263507 -1.627115 2.954769 -5.265655 1.766059 -11.605409 14.895107 -1.828275 8.935654 12.959564 -24.487710 -22.797198 -36.823648 9.888437 -14.953492 -11.192727 1.663392 3.610115 -38.748440 19.365517 13.524432 -29.412356 -12.549008 15.760850 34.301595 -1.526134 31.065450 22.966090 -4.454044 -172.231661 57.716983 -159.717599 -20.684702 23.968480 -31.130040 
0.615829 0.396723 0.892024 71.806233 8.623207 98.456457 18.302866 8.038291 -47.925294 -5.919256 3.125181 46.794421 1.833605 7.114773 -15.837144 0.000000 -0.000000 0.000000 -14.391296 -2.984030 -2.079934 2.735340 5.156955 14.722929 6.337871 -1.071722 -23.881754 0.000000 -0.000000 0.000000 1.390501 5.329791 14.442295 3.131694 -12.173124 -1.379145 2.801244 -5.263731 1.553734 -11.534429 14.637846 -1.256050 8.644704 12.790014 -24.046729 -22.882679 -36.014476 9.361840 -15.676954 -11.232587 1.717239 4.784149 -42.113585 17.870395 13.265305 -29.589533 -12.242783 15.785499 33.808175 -1.362581 30.997077 23.478672 -3.980529 -171.965748 58.216046 -159.280484 -19.957920 24.224237 -30.456648 
0.607552 0.387910 0.894091 71.663032 8.025461 97.231300 18.413108 8.048592 -46.090726 -5.878087 2.718359 45.211296 1.422056 6.813755 -14.913355 0.000000 -0.000000 0.000000 -14.404901 -2.772580 -2.348064 2.848501 5.428265 16.950427 5.886447 -0.704352 -25.118160 0.000000 -0.000000 0.000000 1.557956 4.892154 14.212739 2.939513 -11.980237 -1.264759 2.669944 -5.108220 1.492612 -11.480844 14.225752 -0.755049 8.110323 12.725915 -23.447896 -22.685149 -34.828050 8.672403 -17.225409 -11.288932 1.737852 7.179815 -46.851866 14.343561 13.194469 -28.651302 -13.405038 15.565726 33.011689 -1.350807 30.855124 23.883997 -3.546794 -171.822649 58.819689 -159.027179 -19.120283 24.188029 -29.920809 
0.597522 0.376669 0.896291 71.482053 7.376653 95.798454 18.516629 8.123003 -43.929446 -5.591496 2.142373 43.308649 0.869775 6.439571 -13.771352 0.000000 -0.000000 0.000000 -14.122494 -2.654197 -2.314538 2.792740 5.313893 18.944110 5.256317 -0.522513 -26.504734 0.000000 -0.000000 0.000000 1.909749 4.473929 13.875244 2.636811 -11.639909 -1.011906 2.511592 -4.881310 1.345167 -11.564787 13.882475 -0.006441 7.390210 12.648031 -22.606244 -22.675722 -33.408736 7.985024 -19.211807 -10.849580 2.082738 11.350431 -52.464058 9.079146 12.784394 -28.100631 -15.398823 15.193578 32.174512 -1.310058 30.488154 24.143831 -2.992196 -171.461575 59.394026 -158.649646 -17.834926 24.409047 -29.772955 
0.585149 0.362631 0.899238 71.351481 6.633886 94.302509 18.622859 8.155043 -41.484629 -5.079227 1.386004 40.779047 0.116173 6.080043 -12.142760 0.000000 -0.000000 0.000000 -13.487951 -2.602615 -2.192155 2.481318 4.605742 20.925982 4.355382 -0.800001 -28.231988 0.000000 -0.000000 0.000000 2.237517 4.076047 13.391555 2.216918 -11.137024 -0.548760 2.348363 -4.565642 1.065235 -11.757711 13.558139 1.005910 6.575130 12.584171 -21.663978 -22.693281 -31.532234 7.120911 -21.576539 -10.033055 2.781895 17.631006 -58.551704 2.150482 12.086105 -27.766828 -17.513926 14.804090 31.134681 -1.268277 30.027985 24.392500 -2.241971 -171.062862 60.090350 -158.233232 -16.109348 24.795851 -29.601775 
0.569901 0.345637 0.903249 71.272891 5.829858 92.871835 18.791213 8.134060 -38.665493 -4.287454 0.526488 37.120827 -0.892415 5.787185 -9.652869 0.000000 -0.000000 0.000000 -12.473823 -2.588680 -2.020842 1.835136 3.225041 22.319713 3.284619 -1.601143 -29.768867 0.000000 -0.000000 0.000000 2.448230 3.691852 12.803708 1.631645 -10.456012 0.059320 2.099014 -4.041837 0.810428 -11.851267 13.426538 2.198841 5.838029 12.303048 -20.952933 -22.556800 -29.201460 5.963581 -23.800316 -9.009645 3.729747 25.693576 -64.467394 -6.253089 11.262267 -27.667030 -18.977021 14.564898 29.962663 -1.237517 29.905746 24.606930 -1.169131 -170.577173 61.084023 -157.535295 -14.007969 25.190509 -29.111776 
0.551144 0.326261 0.908931 71.408444 4.968497 91.663939 18.897415 7.975821 -35.431701 -3.100432 -0.447368 31.705492 -2.233857 5.509312 -5.763960 0.000000 -0.000000 0.000000 -11.195826 -2.439161 -1.902884 0.995536 1.993292 23.149190 2.226470 -2.345562 -30.673799 0.000000 -0.000000 0.000000 2.566942 3.264866 12.357576 0.900201 -9.699088 0.665524 1.736975 -3.329356 0.536929 -11.913734 13.399788 3.267361 5.271577 11.745222 -20.469897 -22.328224 -26.509969 4.549211 -25.477304 -7.798543 4.827992 35.855327 -69.879380 -16.812216 10.944507 -27.604117 -20.328744 14.691431 28.692644 -1.064403 30.241995 24.862717 0.270513 -170.213799 62.373856 -157.017735 -12.294943 25.533428 -28.390746 
0.529194 0.305826 0.916276 72.018257 4.088317 91.076635 18.917603 7.790535 -32.380595 -1.605397 -0.972569 24.564917 -4.176768 4.887069 0.235123 0.000000 -0.000000 0.000000 -9.957543 -1.912651 -2.538245 0.532578 1.462136 24.147066 1.488130 -2.470712 -30.825753 0.000000 -0.000000 0.000000 2.585580 2.672588 11.816167 0.152405 -8.995175 1.248228 1.329232 -2.565706 0.088770 -12.039427 13.328739 4.118308 4.845983 11.088377 -20.165401 -22.036521 -23.495686 3.032407 -26.750758 -6.370711 6.078885 51.124134 -74.422870 -32.572608 10.689842 -27.382505 -21.791996 15.072495 27.133515 -0.661810 31.102414 25.237981 2.089755 -169.725244 63.963707 -156.654165 -10.470719 25.717117 -27.882687 
0.506109 0.285739 0.923937 73.254424 3.217153 91.361495 18.960042 7.926597 -30.260169 -0.545396 -0.276071 16.495381 -7.021890 3.985453 8.814204 0.000000 -0.000000 0.000000 -8.908969 -1.309922 -3.810420 0.547394 0.179635 24.653891 0.497611 -2.697073 -30.555824 0.000000 -0.000000 0.000000 2.435818 1.890029 10.751751 -0.518688 -8.557391 1.911912 1.030747 -1.974102 -0.721938 -12.120876 13.209393 5.272076 4.594320 10.614893 -20.388513 -21.950047 -20.422074 1.897177 -27.545712 -4.407798 7.242677 74.445525 -77.121773 -56.256834 10.104167 -27.464274 -22.706842 15.274114 25.382574 -0.248700 32.519565 25.333383 4.211623 -168.831730 65.963878 -156.241769 -8.275741 25.790180 -27.982867 
0.484849 0.267961 0.931108 74.802231 2.285262 91.717434 18.730136 7.851930 -28.215781 -0.275661 0.521810 9.524531 -9.353783 3.517973 15.924522 0.000000 -0.000000 0.000000 -8.196277 -1.208988 -4.767311 0.466170 -1.556595 24.442694 -0.449079 -2.841307 -29.766235 0.000000 -0.000000 0.000000 2.187032 1.064593 9.837425 -1.075096 -8.343526 2.232054 0.816193 -1.611457 -1.289577 -11.969183 13.002111 6.585593 4.318368 10.268215 -20.967442 -21.757540 -17.301799 0.958954 -28.419438 -2.391766 8.320053 98.854526 -77.436726 -80.719946 9.569704 -27.941790 -23.280741 15.077717 23.473482 -0.277200 34.245178 24.781336 6.466186 -168.024334 68.531769 -155.912498 -6.230153 25.855710 -28.439683 
0.466399 0.253469 0.938284 76.058147 1.483010 91.434166 18.084363 7.313338 -26.414636 -0.741765 -0.397694 8.798834 -9.485937 2.903439 14.124284 0.000000 -0.000000 0.000000 -7.483227 -1.127949 -4.962468 0.330486 -2.321002 24.013458 -0.718751 -3.422399 -28.840990 0.000000 -0.000000 0.000000 1.957649 0.491230 9.698321 -1.274409 -8.031300 1.863886 0.554232 -1.405569 -0.969676 -11.349890 12.889630 6.957934 3.695822 9.666854 -20.872769 -21.217212 -14.135717 -0.082071 -30.110198 -0.815451 9.445855 114.754181 -76.817164 -96.210686 8.932558 -28.675021 -23.042410 14.690005 21.434940 -0.849934 35.918029 23.129918 8.563162 -169.109786 71.506838 -156.799501 -5.058964 25.745238 -29.152107 
0.449719 0.241555 0.946109 77.264634 0.924852 90.866584 17.099503 5.805507 -25.054485 -1.320364 -1.628381 13.293111 -7.793115 3.515540 8.395480 0.000000 -0.000000 0.000000 -6.611283 -0.901071 -4.472194 0.309473 -2.431170 22.918459 -0.928062 -4.612555 -27.737788 0.000000 -0.000000 0.000000 1.785169 0.434216 9.768623 -1.147190 -7.601977 1.740436 0.357647 -1.368420 -0.498592 -10.731512 12.466078 6.527456 3.073395 8.833777 -20.212249 -20.667260 -11.662453 -0.495822 -32.163002 0.472352 10.325079 121.685712 -76.976118 -102.766247 7.979609 -29.290273 -22.082999 14.412745 19.374052 -1.523315 37.369648 19.941374 10.013384 -172.562412 74.624688 -159.815399 -3.673573 25.602941 -29.208354 
0.434698 0.231823 0.954055 78.837843 0.481580 90.470424 15.747389 4.147192 -23.845036 -2.003410 -1.534649 19.110878 -5.652367 5.436356 0.996483 0.000000 -0.000000 0.000000 -5.983508 -1.111176 -3.416088 0.540361 -2.531644 20.628311 -0.954697 -5.553166 -26.198964 0.000000 -0.000000 0.000000 1.499165 0.816722 9.482512 -0.683270 -7.239927 2.238063 0.358280 -1.546207 -0.308854 -10.223182 11.692733 6.126259 2.331042 7.795381 -19.708442 -20.156145 -9.834175 -0.185839 -34.686344 1.386391 11.296247 120.131001 -78.433150 -101.328508 6.734085 -29.375038 -20.811184 14.227577 17.213557 -2.082512 38.898477 15.495799 11.089511 -177.606209 78.044771 -164.506034 -2.237277 25.391499 -28.768657 
0.421938 0.224146 0.961222 80.469650 0.056465 90.552463 14.176864 2.925323 -22.353206 -2.505473 -0.738585 23.699431 -4.047043 7.223519 -5.293828 0.000000 -0.000000 0.000000 -5.609910 -1.616711 -2.514780 0.856707 -2.518814 17.749429 -0.702088 -6.243738 -24.340936 0.000000 -0.000000 0.000000 1.141737 1.395454 8.858118 -0.076583 -6.756970 2.412879 0.524648 -1.846792 -0.115337 -9.990205 10.643148 6.212323 1.729897 6.815876 -19.554551 -20.054405 -8.277997 0.388975 -37.223022 2.091911 12.655530 105.357132 -81.069078 -87.020113 5.862939 -29.100047 -19.807543 14.344757 14.755678 -2.444045 40.438354 10.530847 12.051410 174.127890 82.109542 -172.733372 -1.270854 24.882842 -28.430271 
